<?xml version="1.0" encoding="iso-8859-1"?>
<!-- Generator: Adobe Illustrator 19.1.0, SVG Export Plug-In . SVG Version: 6.00 Build 0)  -->
<svg width="70px" height="70px" version="1.1" id="Capa_1" xmlns="http://www.w3.org/2000/svg" xmlns:xlink="http://www.w3.org/1999/xlink" x="0px" y="0px"
	 viewBox="0 0 465.959 465.959" style="enable-background:new 0 0 465.959 465.959;" xml:space="preserve">
<g>
	<g>
		<g>
			<path style="fill:#010002;" d="M196.825,173.801h-15.593l8.168,9.653L196.825,173.801z M180.401,195.149l8.559-11.128h-17.967
				L180.401,195.149z M290.286,184.021h-11.49l6.018,7.103L290.286,184.021z M294.39,154.593h-11.216l5.882,6.947L294.39,154.593z
				 M52.334,0v361.291H165.99l66.974,104.668l67.004-104.668h113.656V0H52.334z M250.033,258.665l17.362-22.589h-24.933v71.723
				h78.923v7.298H150.348v-7.298h78.884v-71.723h-32.447l19.11,22.589h-50.111v47.014h-8.236v-47.014h-50.131l29.877-38.836H120.09
				l27.552-35.808h-18.534l22.647-29.428h-11.744l17.42-22.628l19.12,22.628h-11.587l9.975,11.793l38.436-49.994h-29.692L220,69.222
				h-18.837l27.894-36.286l30.717,36.286h-18.583l39.901,47.17h-30.248l32.036,37.869l17.195-22.296l19.14,22.628h-11.607
				l24.904,29.428h-18.896l30.317,35.808h-18.26l32.847,38.836h-50.092v47.014h-8.266v-47.014H250.033z M275.113,179.664
				l4.514-5.862h-9.467L275.113,179.664z M284.815,191.124l-22.071,28.705h17.176l-12.496,16.248h55.436L284.815,191.124z
				 M299.421,173.801l-10.386-12.262l-9.428,12.262H299.421z M278.797,184.021l-3.693-4.357l-3.351,4.357H278.797z M283.174,154.593
				l-0.264-0.332l-0.264,0.332H283.174z M189.878,184.021l-0.479-0.567l-0.44,0.567H189.878z M181.222,173.801l-6.282-7.416
				l-5.696,7.416H181.222z M201.29,219.829l-20.889-24.679l-31.489,40.927h47.893l-13.756-16.248H201.29z M229.242,307.799h13.239
				v3.644h-13.239V307.799z"/>
			<path style="fill:#010002;" d="M196.825,173.801h-15.593l8.168,9.653L196.825,173.801z M180.401,195.149l8.559-11.128h-17.967
				L180.401,195.149z M290.286,184.021h-11.49l6.018,7.103L290.286,184.021z M294.39,154.593h-11.216l5.882,6.947L294.39,154.593z
				 M52.334,0v361.291H165.99l66.974,104.668l67.004-104.668h113.656V0H52.334z M250.033,258.665l17.362-22.589h-24.933v71.723
				h78.923v7.298H150.348v-7.298h78.884v-71.723h-32.447l19.11,22.589h-50.111v47.014h-8.236v-47.014h-50.131l29.877-38.836H120.09
				l27.552-35.808h-18.534l22.647-29.428h-11.744l17.42-22.628l19.12,22.628h-11.587l9.975,11.793l38.436-49.994h-29.692L220,69.222
				h-18.837l27.894-36.286l30.717,36.286h-18.583l39.901,47.17h-30.248l32.036,37.869l17.195-22.296l19.14,22.628h-11.607
				l24.904,29.428h-18.896l30.317,35.808h-18.26l32.847,38.836h-50.092v47.014h-8.266v-47.014H250.033z M275.113,179.664
				l4.514-5.862h-9.467L275.113,179.664z M284.815,191.124l-22.071,28.705h17.176l-12.496,16.248h55.436L284.815,191.124z
				 M299.421,173.801l-10.386-12.262l-9.428,12.262H299.421z M278.797,184.021l-3.693-4.357l-3.351,4.357H278.797z M283.174,154.593
				l-0.264-0.332l-0.264,0.332H283.174z M189.878,184.021l-0.479-0.567l-0.44,0.567H189.878z M181.222,173.801l-6.282-7.416
				l-5.696,7.416H181.222z M201.29,219.829l-20.889-24.679l-31.489,40.927h47.893l-13.756-16.248H201.29z M229.242,307.799h13.239
				v3.644h-13.239V307.799z"/>
		</g>
	</g>
</g>
<g>
</g>
<g>
</g>
<g>
</g>
<g>
</g>
<g>
</g>
<g>
</g>
<g>
</g>
<g>
</g>
<g>
</g>
<g>
</g>
<g>
</g>
<g>
</g>
<g>
</g>
<g>
</g>
<g>
</g>
</svg>
