<svg width="40" height="40" viewBox="0 0 451 429" fill="none" xmlns="http://www.w3.org/2000/svg">
<path d="M238.497 10.5604L403.786 101.335C412.422 106.078 417.789 115.148 417.789 125.001V303.999C417.789 313.852 412.422 322.922 403.786 327.665L238.497 418.44C230.403 422.885 220.597 422.885 212.503 418.44L47.2143 327.665C38.5782 322.922 33.2113 313.852 33.2113 303.999V125.001C33.2113 115.148 38.5782 106.078 47.2142 101.335L212.503 10.5604C220.597 6.11504 230.403 6.11504 238.497 10.5604Z" fill="#204E9F" stroke="white" stroke-width="6"/>
<path d="M188.499 154.958L128.933 120.905L94 140.172V180.499L155.357 215L94 251.742V290.724L128.933 313.128L188.499 278.178V346.733L223.88 366L258.366 346.733V275.042L321.962 309.095L356 290.724V251.742L294.195 215L356 180.499V140.172L321.962 120.905L258.366 154.958V86.4036L223.88 64L188.499 86.4036V154.958Z" fill="white"/>
</svg>
