<svg width="161" height="44" viewBox="0 0 181 64" fill="none" xmlns="http://www.w3.org/2000/svg">
<g filter="url(#filter0_d_24_14)">
<path d="M60.9324 38.0411V20.5651H64.6681C66.7228 20.5651 68.559 20.7875 68.7487 21.0594C68.9694 21.3759 69.6214 21.3759 70.5607 21.0594C71.3676 20.7875 73.5157 20.5651 75.3342 20.5651C80.0112 20.5651 82.2733 21.7707 84.374 25.383C85.868 27.952 86.0642 28.8164 86.0527 32.781C86.0383 37.7364 85.0977 40.4319 82.5653 42.775C80.7205 44.4818 76.1508 45.4315 72.9674 44.7696L70.7924 44.3173V49.9172V55.5171H65.8624H60.9324V38.0411ZM75.0803 37.742C75.7365 36.2266 75.4641 27.9947 74.7364 27.3499C74.3536 27.0106 73.3096 26.7331 72.4164 26.7331H70.7924V32.3014C70.7924 35.364 70.9664 38.0239 71.179 38.2124C71.9394 38.8862 74.7306 38.5497 75.0803 37.742ZM89.9324 38.0411V20.5651H93.6681C95.7228 20.5651 97.559 20.7875 97.7487 21.0594C97.9694 21.3759 98.6214 21.3759 99.5607 21.0594C101.562 20.3851 107.124 20.4354 108.675 21.1419C111.139 22.2637 113.113 24.3594 114.043 26.8427C115.343 30.3105 115.009 37.5229 113.417 40.3473C111.399 43.9286 106.74 45.7232 101.967 44.7574L99.7924 44.3173V49.9172V55.5171H94.8624H89.9324V38.0411ZM103.736 37.9383C104.604 37.1692 104.679 29.1305 103.832 27.7273C103.446 27.0875 102.618 26.7331 101.512 26.7331H99.7924V32.3014C99.7924 35.364 99.9664 38.0239 100.179 38.2124C100.809 38.7709 102.986 38.6031 103.736 37.9383ZM12.402 44.9069C8.65913 44.1793 6.99236 40.2348 6.99236 32.1048C6.99236 27.5897 6.91054 27.2471 5.83236 27.2471C4.79134 27.2471 4.67236 26.9044 4.67236 23.9061C4.67236 20.685 4.72439 20.5651 6.12236 20.5651C7.48957 20.5651 7.57236 20.407 7.57236 17.7964V15.0278L10.3274 14.6865C11.8426 14.4988 13.9306 14.2155 14.9674 14.0569L16.8524 13.7687V17.1669V20.5651H20.0424H23.2324V23.8792V27.1933L20.1874 27.3487L17.1424 27.5041L16.9756 32.5682C16.7842 38.3831 17.1423 39.0691 20.3697 39.0691C22.5141 39.0691 22.6104 39.1471 23.3803 41.5106C23.9317 43.2031 23.9866 44.0561 23.5591 44.2911C22.7454 44.7384 14.0142 45.2203 12.402 44.9069ZM26.1324 32.6206V20.5181L30.0474 20.6701L33.9624 20.8221L34.1407 23.0066C34.3131 25.1176 35.4124 26.1773 35.4124 24.2324C35.4124 23.7051 35.9533 22.6643 36.6145 21.9194C37.6225 20.7837 38.2778 20.5651 40.6745 20.5651H43.5324L43.5244 22.7496C43.5104 26.6118 43.0983 27.2471 40.6068 27.2471C38.9098 27.2471 38.1174 27.5616 37.1944 28.6014C36.105 29.8287 35.9923 30.6478 35.9923 37.3394L35.9924 44.7231H31.0624H26.1324V32.6206ZM46.4324 32.6441V20.5651H51.3624H56.2924V32.6441V44.7231H51.3624H46.4324V32.6441ZM151.992 32.6441V20.5651H155.646C157.656 20.5651 159.594 20.8251 159.952 21.1429C160.435 21.5707 161.09 21.5707 162.475 21.1429C165.134 20.3216 170.31 20.4278 172.311 21.3448C175.561 22.8339 176.018 24.4299 176.251 35.0856L176.461 44.7231H171.477H166.492V36.305C166.492 27.122 166.212 26.297 163.31 26.9425L161.852 27.2666V35.9949V44.7231H156.922H151.992V32.6441V32.6441ZM129.888 40.7105C123.849 34.1008 118.109 25.462 116.675 20.8221C115.669 17.5706 115.897 11.8839 117.129 9.48046C118.686 6.44162 121.601 3.72868 124.97 2.18119C127.463 1.03647 128.69 0.821622 132.852 0.801458C138.531 0.773959 140.117 1.34421 144.525 4.99812C149.262 8.92452 150.768 14.4814 148.753 20.6003C147.008 25.902 140.045 36.1391 134.2 41.9955L132.562 43.6368L129.888 40.7105ZM137.057 19.0328C142.079 14.096 134.64 7.28852 128.9 11.5685C126.787 13.1444 126.212 14.9668 127.086 17.3156C128.533 21.1988 133.912 22.1252 137.057 19.0328ZM47.7365 17.3526C44.941 14.6985 45.8482 10.8749 49.5287 9.79845C53.1137 8.74993 56.2924 10.8551 56.2924 14.2778C56.2924 18.0024 50.5823 20.0544 47.7365 17.3526Z" fill="#276590"/>
</g>
<defs>
<filter id="filter0_d_24_14" x="0.672363" y="0.800537" width="179.789" height="62.7166" filterUnits="userSpaceOnUse" color-interpolation-filters="sRGB">
<feFlood flood-opacity="0" result="BackgroundImageFix"/>
<feColorMatrix in="SourceAlpha" type="matrix" values="0 0 0 0 0 0 0 0 0 0 0 0 0 0 0 0 0 0 127 0" result="hardAlpha"/>
<feOffset dy="4"/>
<feGaussianBlur stdDeviation="2"/>
<feComposite in2="hardAlpha" operator="out"/>
<feColorMatrix type="matrix" values="0 0 0 0 0 0 0 0 0 0 0 0 0 0 0 0 0 0 0.25 0"/>
<feBlend mode="normal" in2="BackgroundImageFix" result="effect1_dropShadow_24_14"/>
<feBlend mode="normal" in="SourceGraphic" in2="effect1_dropShadow_24_14" result="shape"/>
</filter>
</defs>
</svg>
